HIERARCHY
ROOT Hips
{
	OFFSET 0.000000 0.000000 0.000000
	CHANNELS 6 Xposition Yposition Zposition Zrotation Xrotation Yrotation
	JOINT RightUpLeg
	{
		OFFSET -10.795800 0.000000 0.000000
		CHANNELS 3 Zrotation Xrotation Yrotation
		JOINT RightLeg
		{
			OFFSET 0.000000 -39.557900 0.000000
			CHANNELS 3 Zrotation Xrotation Yrotation
			JOINT RightFoot
			{
				OFFSET 0.000000 -40.613400 0.000000
				CHANNELS 3 Zrotation Xrotation Yrotation
				JOINT RightToe
				{
					OFFSET 0.000000 -1.003500 12.392200
					CHANNELS 3 Zrotation Xrotation Yrotation
					JOINT RightToeEnd
					{
						OFFSET 0.000000 1.088300 5.767000
						CHANNELS 3 Zrotation Xrotation Yrotation
						End Site
						{
						    OFFSET 0.000000 0.927200 4.913300
						}
					}
				}
			}
		}
	}
	JOINT LeftUpLeg
	{
		OFFSET 10.795800 0.000000 0.000000
		CHANNELS 3 Zrotation Xrotation Yrotation
		JOINT LeftLeg
		{
			OFFSET 0.000000 -39.557900 0.000000
			CHANNELS 3 Zrotation Xrotation Yrotation
			JOINT LeftFoot
			{
				OFFSET 0.000000 -40.613400 0.000000
				CHANNELS 3 Zrotation Xrotation Yrotation
				JOINT LeftToe
				{
					OFFSET 0.000000 -1.003500 12.392200
					CHANNELS 3 Zrotation Xrotation Yrotation
					JOINT LeftToeEnd
					{
						OFFSET 0.000000 1.088300 5.767000
						CHANNELS 3 Zrotation Xrotation Yrotation
						End Site
						{
						    OFFSET 0.000000 0.927200 4.913300
						}
					}
				}
			}
		}
	}
	JOINT Spine
	{
		OFFSET 0.000000 15.108100 0.000000
		CHANNELS 3 Zrotation Xrotation Yrotation
		JOINT Spine1
		{
			OFFSET 0.000000 12.828000 0.000000
			CHANNELS 3 Zrotation Xrotation Yrotation
			JOINT Spine2
			{
				OFFSET 0.000000 11.155500 0.000000
				CHANNELS 3 Zrotation Xrotation Yrotation
				JOINT LeftShoulder
				{
					OFFSET 2.000000 11.155500 0.000000
					CHANNELS 3 Zrotation Xrotation Yrotation
					JOINT LeftArm
					{
						OFFSET 15.139800 0.000000 0.000000
						CHANNELS 3 Zrotation Xrotation Yrotation
						JOINT LeftForeArm
						{
							OFFSET 0.000000 -26.627300 0.000000
							CHANNELS 3 Zrotation Xrotation Yrotation
							JOINT LeftHand
							{
								OFFSET 0.000000 -24.932400 0.000000
								CHANNELS 3 Zrotation Xrotation Yrotation
								JOINT LeftFinger0
								{
									OFFSET 0.000000 -8.640100 0.000000
									CHANNELS 3 Zrotation Xrotation Yrotation
									End Site
									{
									    OFFSET 0.000000 -5.000000 0.000000
									}
								}
							}
						}
					}
				}
				JOINT RightShoulder
				{
					OFFSET -2.000000 11.155500 0.000000
					CHANNELS 3 Zrotation Xrotation Yrotation
					JOINT RightArm
					{
						OFFSET -15.139800 0.000000 0.000000
						CHANNELS 3 Zrotation Xrotation Yrotation
						JOINT RightForeArm
						{
							OFFSET 0.000000 -26.627300 0.000000
							CHANNELS 3 Zrotation Xrotation Yrotation
							JOINT RightHand
							{
								OFFSET 0.000000 -24.932400 0.000000
								CHANNELS 3 Zrotation Xrotation Yrotation
								JOINT RightFinger0
								{
									OFFSET 0.000000 -8.640100 0.000000
									CHANNELS 3 Zrotation Xrotation Yrotation
									End Site
									{
									    OFFSET 0.000000 -5.000000 0.000000
									}
								}
							}
						}
					}
				}
				JOINT Neck
				{
					OFFSET 0.000000 11.155500 0.000000
					CHANNELS 3 Zrotation Xrotation Yrotation
					JOINT Head
					{
						OFFSET 0.000000 10.940000 0.000000
						CHANNELS 3 Zrotation Xrotation Yrotation
						JOINT HeadTip
						{
							OFFSET 0.000000 10.000000 0.000000
							CHANNELS 3 Zrotation Xrotation Yrotation
							End Site
							{
							    OFFSET 0.000000 5.000000 0.000000
							}
						}
					}
				}
			}
		}
	}
}
MOTION
Frames:	8
Frame Time:	0.033332
78.836200 86.532400 -6.266300 -0.825245 -1.116158 -2.429977 0.706796 -1.618723 -9.946955 -0.000000 8.822190 -0.000000 8.256520 4.604502 -13.797275 0.000000 1.109210 -0.000000 -0.000000 0.000000 0.000000 -1.866465 -0.341325 2.850813 0.000000 5.740664 0.000000 -4.967362 8.568651 19.156772 -0.000000 -8.810858 -0.000000 -0.000000 0.000000 -0.000000 -2.105664 2.138673 -1.666373 -0.000000 0.153095 -0.000000 -0.000000 0.000000 0.000000 4.591590 0.000000 7.604693 68.380243 -8.765648 17.440366 -0.000000 -15.803104 -0.000000 -9.465014 13.932660 -30.702646 0.000000 -0.000000 -0.000000 -4.585885 -0.000000 -9.110627 -66.130313 -12.543751 -22.413811 -0.000024 -9.147282 -0.000002 4.812727 7.312054 10.601270 -0.000000 0.000000 -0.000000 -0.000000 0.000000 0.000000 5.231727 9.032340 -7.323864 0.000000 -0.000000 -0.000000 
78.831900 86.532200 -6.250500 -0.829214 -1.156806 -2.398971 0.716881 -1.549948 -9.978422 -0.000000 8.796013 -0.000000 8.273488 4.629684 -13.801970 -0.000000 1.016227 -0.000000 -0.000000 0.000000 0.000000 -1.862860 -0.276654 2.801024 -0.000000 5.711818 -0.000000 -4.986113 8.572197 19.185553 -0.000000 -8.858571 -0.000000 0.000000 0.000000 -0.000000 -2.062967 2.177078 -1.707185 -0.000000 0.192111 -0.000000 -0.000000 -0.000000 -0.000000 4.550478 0.000000 7.638756 68.515512 -8.669043 17.583399 -0.000000 -15.953824 -0.000000 -9.381095 13.881776 -30.884087 -0.000000 -0.000000 0.000000 -4.533256 -0.000000 -9.135454 -66.272541 -12.459844 -22.191962 -0.000025 -9.480387 -0.000002 4.756830 7.300824 10.685310 -0.000000 0.000000 0.000000 -0.000000 -0.000000 -0.000000 5.216672 9.015123 -7.223360 -0.000000 -0.000000 -0.000000 
78.828900 86.531900 -6.255300 -0.817301 -1.118329 -2.423253 0.710703 -1.586593 -9.809904 -0.000000 8.786557 -0.000000 8.329067 4.565259 -13.902947 0.000000 1.121882 -0.000000 0.000000 0.000000 -0.000000 -1.868834 -0.314060 2.800305 0.000000 5.706711 -0.000000 -5.007729 8.572621 19.195079 -0.000000 -8.859368 0.000000 0.000000 -0.000000 0.000000 -2.035156 2.145461 -1.679771 0.000000 0.207531 0.000000 0.000000 0.000000 -0.000000 4.522102 0.000000 7.696746 68.551873 -8.601448 17.609536 -0.000000 -16.112532 -0.000000 -9.276729 13.826326 -30.840977 0.000000 0.000000 -0.000000 -4.559835 0.000000 -9.122939 -66.244793 -12.386160 -22.303803 -0.000026 -9.682242 -0.000002 4.802902 7.294691 10.934745 0.000000 -0.000000 -0.000000 0.000000 0.000000 -0.000000 5.221998 9.030586 -7.129404 -0.000000 0.000000 -0.000000 
78.815000 86.532500 -6.252300 -0.817897 -1.112123 -2.401893 0.718090 -1.604290 -10.016252 -0.000000 8.808099 -0.000000 8.279138 4.619978 -13.793485 -0.000000 1.001496 -0.000000 -0.000000 -0.000000 -0.000000 -1.855507 -0.322355 2.803976 0.000000 5.711206 -0.000000 -5.033147 8.564203 19.163367 -0.000000 -8.829745 0.000000 0.000000 0.000000 -0.000000 -2.009588 2.145759 -1.670870 -0.000000 0.216348 -0.000000 -0.000000 -0.000000 -0.000000 4.507318 -0.000000 7.753724 68.578850 -8.592616 17.594791 -0.000000 -16.134526 -0.000000 -9.360119 13.787823 -30.822155 -0.000000 0.000000 -0.000000 -4.520479 -0.000000 -9.147933 -66.276949 -12.387223 -22.290035 -0.000026 -9.717964 -0.000002 5.014020 7.340363 11.040848 -0.000000 0.000000 -0.000000 -0.000000 -0.000000 -0.000000 5.232139 9.080593 -7.063147 -0.000000 0.000000 -0.000000 
78.800100 86.530800 -6.247400 -0.806525 -1.107613 -2.348932 0.721276 -1.567791 -9.855053 -0.000000 8.757753 0.000000 8.266947 4.550870 -13.916722 -0.000000 1.104166 -0.000000 0.000000 -0.000000 -0.000000 -1.859221 -0.338893 2.792038 0.000000 5.732102 0.000000 -4.995391 8.562922 19.137328 -0.000000 -8.840106 -0.000000 -0.000000 0.000000 -0.000000 -1.995979 2.126883 -1.672927 -0.000000 0.237599 -0.000000 -0.000000 -0.000000 0.000000 4.523397 0.000000 7.769925 68.545109 -8.616595 17.694604 0.000000 -16.014362 0.000000 -9.282855 13.815283 -30.899373 -0.000000 0.000000 -0.000000 -4.539741 0.000000 -9.197048 -66.263590 -12.469242 -22.106099 -0.000026 -9.552046 -0.000002 5.053244 7.352465 10.806090 0.000000 0.000000 0.000000 -0.000000 -0.000000 0.000000 5.218819 9.155464 -7.009766 0.000000 -0.000000 0.000000 
78.785600 86.528800 -6.234500 -0.799223 -1.132450 -2.311605 0.716896 -1.547185 -9.970394 0.000000 8.789778 -0.000000 8.178638 4.539456 -13.849244 -0.000000 1.132892 -0.000000 -0.000000 0.000000 -0.000000 -1.858429 -0.298488 2.763281 0.000000 5.713303 -0.000000 -5.053784 8.513690 19.115570 -0.000000 -8.753960 -0.000000 -0.000000 0.000000 -0.000000 -1.975678 2.146727 -1.660041 0.000000 0.248602 -0.000000 0.000000 0.000000 -0.000000 4.537310 0.000000 7.787710 68.559957 -8.654557 17.614816 0.000000 -15.816742 -0.000000 -9.155401 13.838974 -30.849765 0.000000 -0.000000 -0.000000 -4.566204 -0.000000 -9.210828 -66.298490 -12.560905 -22.021234 -0.000025 -9.272034 -0.000002 5.082618 7.399477 10.700446 0.000000 0.000000 -0.000000 0.000000 0.000000 -0.000000 5.200576 9.199298 -6.940016 -0.000000 -0.000000 0.000000 
78.763200 86.530000 -6.226600 -0.796624 -1.149882 -2.260088 0.734181 -1.515141 -9.909971 -0.000000 8.792796 -0.000000 8.270595 4.501740 -13.949340 -0.000000 1.151988 -0.000000 0.000000 0.000000 0.000000 -1.847161 -0.290302 2.751996 -0.000000 5.727412 0.000000 -5.036301 8.532581 19.092511 0.000000 -8.782677 0.000000 -0.000000 0.000000 -0.000000 -1.955585 2.149653 -1.643809 -0.000000 0.271016 -0.000000 0.000000 0.000000 0.000000 4.554300 0.000000 7.773368 68.601957 -8.683653 17.639058 0.000000 -15.604542 -0.000000 -9.092587 13.845224 -30.947261 -0.000000 0.000000 -0.000000 -4.597457 -0.000000 -9.168805 -66.356930 -12.548930 -22.088089 -0.000024 -9.050832 -0.000002 5.124511 7.492619 10.722360 -0.000000 0.000000 -0.000000 0.000000 0.000000 0.000000 5.187288 9.240952 -6.863745 0.000000 0.000000 -0.000000 
78.738700 86.529300 -6.223200 -0.787992 -1.160298 -2.187433 0.729811 -1.515738 -10.082354 0.000000 8.835763 -0.000000 8.208459 4.492556 -13.832760 -0.000000 1.130879 -0.000000 -0.000000 0.000000 -0.000000 -1.835018 -0.290837 2.723096 -0.000000 5.742619 0.000000 -5.006754 8.569447 19.045572 -0.000000 -8.803858 -0.000000 -0.000000 0.000000 -0.000000 -1.954476 2.158414 -1.627284 -0.000000 0.292292 -0.000000 0.000000 0.000000 -0.000000 4.557833 -0.000000 7.760069 68.656210 -8.675379 17.687302 -0.000000 -15.536495 -0.000000 -8.938039 13.842452 -30.918325 -0.000000 0.000000 -0.000000 -4.562934 0.000000 -9.185968 -66.501026 -12.561323 -22.150808 -0.000024 -8.906449 -0.000002 5.033730 7.453122 10.756718 0.000000 -0.000000 -0.000000 0.000000 0.000000 -0.000000 5.202498 9.243221 -6.780271 -0.000000 0.000000 -0.000000 
